<svg xmlns="http://www.w3.org/2000/svg" shape-rendering="geometricPrecision" text-rendering="geometricPrecision" image-rendering="optimizeQuality" fill-rule="evenodd" clip-rule="evenodd" viewBox="0 0 512 389.93"><path fill="#1470B8" d="M256.02 0c107.67 0 194.96 87.29 194.96 194.97 0 107.67-87.29 194.96-194.96 194.96-107.68 0-194.97-87.29-194.97-194.96C61.05 87.29 148.34 0 256.02 0z"/><path fill="#BBDEFB" fill-rule="nonzero" d="M246.24 88.71V34.03c-10.48 9.24-20.07 18.43-28.79 27.58-8.63 9.06-16.42 18.09-23.36 27.1h52.15zm149.01 212.84h-50.26c-17.23 24.83-38.92 46.81-61.85 66.4l1.98-.31c43.07-7 83.74-31.34 110.13-66.09zm-166.29 66.38c-22.91-19.57-44.62-41.57-61.82-66.38h-50.15c26.52 34.92 66.88 59.02 110.11 66.08l1.86.3zM116.79 88.71h53.24c8.01-11.46 17.27-22.96 27.79-34.49 9.77-10.71 20.64-21.46 32.62-32.24l-2.83.42c-43.25 6.73-84.3 31.35-110.82 66.31zm164.96-66.58c22.23 19.94 43.18 42.01 60.23 66.58h53.16c-27.54-36.22-68.52-59.84-113.39-66.58zm-15.98 11.9v54.68h52.15c-6.94-9.01-14.72-18.04-23.35-27.1-8.72-9.15-18.32-18.34-28.8-27.58zm0 267.52v55.49c19.99-16.6 38.98-35 55.02-55.49h-55.02zm-19.53 55.5v-55.5h-55.03c15.96 20.54 35.01 38.95 55.03 55.5z"/><path fill="#1470B8" fill-rule="nonzero" d="M40.22 90.41h431.56c22.09 0 40.22 18.13 40.22 40.22v129c0 22.03-18.19 40.22-40.22 40.22H40.22C18.09 299.85 0 281.76 0 259.63v-129c0-22.15 18.07-40.22 40.22-40.22z"/><path fill="#fff" d="M40.22 108.32h431.56c12.27 0 22.31 10.08 22.31 22.31v129c0 12.23-10.08 22.31-22.31 22.31H40.22c-12.23 0-22.31-10.04-22.31-22.31v-129c0-12.27 10.05-22.31 22.31-22.31z"/><path fill="#1F3647" fill-rule="nonzero" d="M147.35 148.47h31.2l-14.62 93.31h-38.97l-6.87-34.34h-1.79l-6.72 34.34H70.62l-14.63-93.31h31.2l7.01 52.11h.9l10.75-52.11h22.84l10.6 52.11h.9l7.16-52.11zm99.51 58.08H217v12.93h36.58v22.3h-66.44v-93.31h65.69l-3.73 22.31H217v14.12h29.86v21.65zm20.52 35.23v-93.31h48.38c8.95 0 15.35 1.75 19.18 5.23 3.83 3.48 5.75 8.56 5.75 15.23s-1.22 11.81-3.66 15.45c-2.44 3.63-5.7 5.99-9.78 7.09v.9c12.04 2.09 18.07 10.3 18.07 24.63 0 7.47-1.99 13.46-5.97 17.99-3.99 4.53-10.11 6.79-18.37 6.79h-53.6zm41.51-37.17h-13.23v15.23h13.08c4.18 0 6.27-2.54 6.27-7.62 0-5.07-2.05-7.61-6.12-7.61zm-2.24-35.68h-10.99v13.88h10.84c3.78 0 5.67-2.31 5.67-6.94 0-4.63-1.84-6.94-5.52-6.94zm117.27 12.39v-11.29c-2.99-.5-7.82-.74-14.48-.74-6.67 0-14.98 1.04-24.94 3.13l-3.88-20.51c12.14-3.79 23.89-5.68 35.24-5.68 9.75 0 16.82.6 21.2 1.79 4.38 1.2 7.61 2.64 9.7 4.33 4.58 3.89 6.87 9.76 6.87 17.62 0 9.95-4.13 17.12-12.39 21.5v.75c9.85 4.08 14.78 11.49 14.78 22.24 0 5.28-.82 9.78-2.46 13.51-1.65 3.73-3.71 6.62-6.2 8.66s-5.77 3.66-9.86 4.85c-6.07 1.7-14.6 2.54-25.6 2.54-11 0-22.02-1.29-33.07-3.88l4.18-23.05c9.46 2.29 17.47 3.44 24.04 3.44s12.19-.3 16.87-.9v-11.14l-25.68-2.54V184.3l25.68-2.98z"/></svg>